<?xml version="1.0" encoding="utf-8"?>
<!-- Generator: Adobe Illustrator 22.0.1, SVG Export Plug-In . SVG Version: 6.00 Build 0)  -->
<svg version="1.1" id="Logo" xmlns="http://www.w3.org/2000/svg" xmlns:xlink="http://www.w3.org/1999/xlink" x="0px" y="0px"
	 viewBox="0 0 28 28" style="enable-background:new 0 0 28 28;" xml:space="preserve">
<style type="text/css">
	.st0{fill:#FFFFFE;}
</style>
<path class="st0" d="M16.6,0.2H0.4C0.2,0.2,0,0.3,0,0.6v26.8c0,0.7,0.4,0.8,0.9,0.4l2.5-2.4l3.2-3.1c0.1-0.1,0.3-0.1,0.4-0.1h9.8
	c5.9,0,10.5-5.1,10.5-10.9C27.2,5.3,22.5,0.2,16.6,0.2z M5.5,5.8c0-0.1,0.1-0.2,0.2-0.2h12.9c0.1,0,0.2,0.1,0.2,0.2v1.6
	c0,0.1-0.1,0.2-0.2,0.2H5.8c-0.1,0-0.2-0.1-0.2-0.2V5.8z M18.9,16.3c0,0.1-0.1,0.2-0.2,0.2H5.8c-0.1,0-0.2-0.1-0.2-0.2v-1.6
	c0-0.1,0.1-0.2,0.2-0.2h12.9c0.1,0,0.2,0.1,0.2,0.2V16.3z M21.6,11.9c0,0.1-0.1,0.2-0.2,0.2H5.8c-0.1,0-0.2-0.1-0.2-0.2v-1.6
	c0-0.1,0.1-0.2,0.2-0.2h15.6c0.1,0,0.2,0.1,0.2,0.2V11.9z"/>
</svg>
